<svg width="215" height="213" viewBox="0 0 215 213" fill="none" xmlns="http://www.w3.org/2000/svg">
<path d="M197.457 129.554L198.857 123.03L195.968 121.281L196.708 117.832L211.847 127.241L211.026 131.066L193.359 133.436L194.104 129.963L197.457 129.554ZM200.277 129.226L207.637 128.326L201.294 124.486L200.277 129.226Z" fill="#FFD660"/>
<path d="M197.818 157.114L187.186 148.235L188.635 144.913L198.118 146.405L190.574 140.47L192.033 137.126L205.784 138.856L204.422 141.98L194.197 140.086L202.464 146.467L201.043 149.723L190.784 147.971L199.104 154.166L197.818 157.114Z" fill="#FFD660"/>
<path d="M185.071 175.259L176.565 164.326L178.687 161.388L187.637 164.858L181.525 157.457L183.66 154.499L196.731 159.109L194.736 161.872L185.147 157.852L191.87 165.841L189.791 168.721L180.137 164.832L186.953 172.652L185.071 175.259Z" fill="#FFD660"/>
<path d="M168.702 190.33L162.721 177.836L165.42 175.417L173.425 180.714L169.03 172.181L171.746 169.746L183.535 177.034L180.998 179.309L172.485 173.338L177.352 182.577L174.707 184.948L166.103 179.091L171.097 188.184L168.702 190.33Z" fill="#FFD660"/>
<path d="M162.969 186.141C163.657 187.296 164.04 188.455 164.119 189.619C164.184 190.79 163.968 191.85 163.471 192.798C162.96 193.754 162.217 194.523 161.241 195.104C160.389 195.612 159.544 195.882 158.707 195.915C157.856 195.956 157.083 195.83 156.387 195.537L157.357 197.166L154.45 198.897L147.644 187.475L150.551 185.744L151.546 187.414C151.598 186.657 151.848 185.903 152.294 185.152C152.736 184.424 153.383 183.806 154.235 183.298C155.197 182.725 156.224 182.449 157.316 182.469C158.395 182.497 159.434 182.818 160.434 183.433C161.428 184.07 162.273 184.973 162.969 186.141ZM153.954 191.455C154.372 192.156 154.866 192.672 155.435 193.003C156.013 193.348 156.614 193.511 157.237 193.494C157.868 193.491 158.452 193.329 158.988 193.01C159.524 192.691 159.941 192.265 160.239 191.734C160.537 191.203 160.679 190.597 160.664 189.916C160.645 189.258 160.43 188.585 160.02 187.898C159.611 187.21 159.113 186.687 158.527 186.329C157.935 185.992 157.331 185.822 156.713 185.817C156.082 185.82 155.505 185.978 154.983 186.289C154.447 186.608 154.023 187.037 153.711 187.577C153.408 188.13 153.266 188.736 153.286 189.395C153.314 190.067 153.537 190.754 153.954 191.455Z" fill="#FFD660"/>
<path d="M146.235 200.252C146.111 201.069 145.81 201.795 145.332 202.432C144.84 203.074 144.181 203.57 143.356 203.919L141.981 200.67L142.799 200.324C143.772 199.913 144.412 199.373 144.72 198.704C145.013 198.042 144.919 197.143 144.439 196.008L141.859 189.908L144.953 188.599L150.133 200.844L147.039 202.153L146.235 200.252Z" fill="#FFD660"/>
<path d="M139.335 198.373C139.682 199.672 139.734 200.891 139.492 202.032C139.235 203.177 138.73 204.14 137.978 204.921C137.226 205.701 136.301 206.237 135.203 206.53C134.369 206.753 133.523 206.78 132.666 206.611C131.814 206.458 131.083 206.14 130.474 205.656L132.102 211.755L128.809 212.634L124.228 195.475L127.521 194.596L128.029 196.497C128.261 195.756 128.689 195.095 129.313 194.515C129.936 193.935 130.727 193.517 131.686 193.261C132.768 192.972 133.831 192.986 134.877 193.303C135.922 193.621 136.841 194.211 137.635 195.076C138.418 195.96 138.984 197.059 139.335 198.373ZM129.213 201.025C129.423 201.813 129.757 202.445 130.215 202.919C130.677 203.408 131.21 203.729 131.814 203.883C132.422 204.052 133.027 204.056 133.63 203.895C134.233 203.734 134.751 203.439 135.182 203.009C135.614 202.579 135.916 202.035 136.088 201.376C136.248 200.737 136.226 200.031 136.019 199.258C135.813 198.485 135.477 197.846 135.011 197.341C134.533 196.856 133.998 196.527 133.406 196.354C132.797 196.185 132.2 196.179 131.612 196.336C131.009 196.497 130.484 196.794 130.037 197.228C129.594 197.677 129.292 198.222 129.132 198.861C128.975 199.515 129.002 200.237 129.213 201.025Z" fill="#FFD660"/>
<path d="M116.407 196.185C117.489 196.072 118.48 196.161 119.379 196.453C120.28 196.761 121.02 197.223 121.599 197.838C122.162 198.455 122.51 199.167 122.642 199.973L119.277 200.325C119.16 199.822 118.869 199.426 118.404 199.137C117.924 198.849 117.358 198.74 116.705 198.808C116.069 198.874 115.589 199.053 115.265 199.344C114.926 199.637 114.777 199.983 114.818 200.38C114.863 200.81 115.119 201.105 115.586 201.265C116.039 201.443 116.757 201.61 117.738 201.765C118.75 201.9 119.587 202.062 120.25 202.25C120.897 202.44 121.479 202.773 121.995 203.25C122.496 203.729 122.793 204.414 122.886 205.305C122.962 206.037 122.825 206.727 122.475 207.375C122.108 208.024 121.553 208.565 120.81 208.997C120.051 209.43 119.138 209.702 118.072 209.813C116.497 209.978 115.198 209.711 114.176 209.014C113.156 208.332 112.528 207.328 112.293 206.001L115.491 205.667C115.594 206.187 115.86 206.578 116.289 206.838C116.705 207.117 117.238 207.222 117.891 207.154C118.496 207.091 118.953 206.93 119.264 206.673C119.559 206.417 119.686 206.09 119.644 205.692C119.598 205.246 119.339 204.927 118.869 204.735C118.4 204.559 117.684 204.4 116.72 204.26C115.74 204.121 114.927 203.956 114.279 203.767C113.632 203.577 113.057 203.235 112.555 202.74C112.039 202.263 111.727 201.588 111.62 200.714C111.54 199.951 111.683 199.244 112.05 198.594C112.4 197.946 112.955 197.406 113.714 196.973C114.459 196.557 115.357 196.294 116.407 196.185Z" fill="#FFD660"/>
<path d="M81.2622 196.503L87.7339 198.125L89.5812 195.298L93.0033 196.155L83.0797 210.963L79.2851 210.012L77.5223 192.275L80.9677 193.138L81.2622 196.503ZM81.493 199.332L82.1397 206.719L86.1955 200.511L81.493 199.332Z" fill="#FFD660"/>
<path d="M53.7159 195.848L62.9863 185.553L66.2519 187.125L64.4077 196.545L70.6204 189.227L73.9077 190.809L71.6659 204.485L68.595 203.007L70.8684 192.862L64.1832 200.885L60.9824 199.344L63.1157 189.158L56.6139 197.242L53.7159 195.848Z" fill="#FFD660"/>
<path d="M36.0748 182.485L47.3134 174.385L50.1727 176.612L46.3772 185.428L53.9977 179.59L56.8759 181.832L51.7913 194.724L49.1025 192.63L53.471 183.195L45.2396 189.622L42.4371 187.44L46.6773 177.935L38.6122 184.461L36.0748 182.485Z" fill="#FFD660"/>
<path d="M21.6971 165.769L34.3824 160.201L36.7122 162.977L31.1551 170.803L39.8288 166.69L42.174 169.485L34.503 181.027L32.3121 178.416L38.559 170.105L29.1646 174.666L26.8812 171.945L33.0171 163.539L23.7645 168.232L21.6971 165.769Z" fill="#FFD660"/>
<path d="M26.1109 160.209C24.934 160.858 23.7627 161.202 22.597 161.242C21.4235 161.268 20.3713 161.017 19.4404 160.489C18.5017 159.947 17.758 159.179 17.2092 158.184C16.73 157.315 16.4877 156.462 16.4824 155.625C16.4694 154.773 16.6209 154.004 16.9369 153.318L15.2766 154.234L13.6419 151.271L25.2845 144.85L26.9193 147.813L25.217 148.752C25.9721 148.828 26.7173 149.103 27.4526 149.574C28.1661 150.039 28.7625 150.706 29.2417 151.575C29.7827 152.556 30.0252 153.591 29.9692 154.682C29.9054 155.759 29.5495 156.786 28.9016 157.765C28.232 158.737 27.3018 159.552 26.1109 160.209ZM21.098 151.023C20.3834 151.417 19.8513 151.894 19.5015 152.452C19.1377 153.018 18.9541 153.613 18.9507 154.236C18.9333 154.867 19.0753 155.455 19.3767 156.002C19.6782 156.548 20.0895 156.979 20.6108 157.294C21.1321 157.61 21.733 157.772 22.4137 157.78C23.0727 157.782 23.7524 157.59 24.453 157.204C25.1535 156.817 25.6926 156.337 26.0704 155.763C26.4265 155.183 26.6171 154.585 26.6423 153.968C26.6597 153.337 26.5215 152.755 26.2278 152.223C25.9264 151.677 25.5111 151.239 24.9822 150.909C24.4391 150.588 23.8382 150.426 23.1792 150.424C22.5062 150.429 21.8125 150.629 21.098 151.023Z" fill="#FFD660"/>
<path d="M12.5085 142.861C11.6969 142.707 10.9821 142.38 10.364 141.878C9.74017 141.362 9.26928 140.685 8.95131 139.847L12.2498 138.596L12.565 139.426C12.9397 140.413 13.4555 141.073 14.1123 141.406C14.7634 141.723 15.6649 141.664 16.8167 141.227L23.0099 138.877L24.2023 142.018L11.7711 146.735L10.5787 143.594L12.5085 142.861Z" fill="#FFD660"/>
<path d="M14.6887 136.248C13.379 136.55 12.1582 136.56 11.0261 136.28C9.89043 135.983 8.94548 135.446 8.19124 134.667C7.437 133.889 6.93224 132.946 6.67694 131.839C6.48278 130.997 6.48469 130.151 6.68268 129.301C6.86509 128.454 7.20818 127.735 7.71195 127.143L1.5613 128.561L0.79541 125.24L18.1014 121.25L18.8673 124.571L16.9496 125.013C17.6823 125.271 18.3281 125.721 18.8869 126.364C19.4456 127.007 19.8365 127.812 20.0594 128.778C20.3111 129.87 20.2606 130.932 19.9079 131.966C19.5552 133 18.9332 133.898 18.0421 134.662C17.1317 135.414 16.0139 135.942 14.6887 136.248ZM12.3839 126.041C11.5887 126.224 10.9465 126.536 10.4571 126.978C9.95215 127.422 9.61269 127.944 9.43871 128.542C9.24914 129.144 9.22448 129.749 9.36471 130.357C9.50494 130.966 9.7825 131.493 10.1974 131.939C10.6123 132.385 11.1459 132.705 11.7983 132.9C12.4315 133.082 13.1378 133.083 13.9174 132.904C14.697 132.724 15.347 132.41 15.8675 131.962C16.3689 131.501 16.7162 130.978 16.9093 130.391C17.0989 129.789 17.1254 129.192 16.9887 128.6C16.8485 127.992 16.5691 127.457 16.1506 126.995C15.7166 126.537 15.1829 126.217 14.5497 126.034C13.901 125.855 13.179 125.858 12.3839 126.041Z" fill="#FFD660"/>
<path d="M17.65 113.561C17.7255 114.646 17.6017 115.633 17.2786 116.522C16.9395 117.411 16.4526 118.135 15.8177 118.692C15.1818 119.234 14.4584 119.557 13.6477 119.661L13.4129 116.285C13.9192 116.186 14.325 115.909 14.6302 115.455C14.9343 114.985 15.0636 114.422 15.0181 113.768C14.9736 113.129 14.8115 112.644 14.5317 112.31C14.2508 111.961 13.9108 111.8 13.5118 111.828C13.0808 111.858 12.7771 112.103 12.6007 112.565C12.4073 113.011 12.2161 113.722 12.0274 114.698C11.8568 115.704 11.666 116.535 11.455 117.191C11.243 117.832 10.8897 118.401 10.3951 118.901C9.8995 119.385 9.20476 119.657 8.31091 119.72C7.57669 119.771 6.89187 119.61 6.25647 119.237C5.61995 118.848 5.09892 118.275 4.69336 117.517C4.28669 116.744 4.04616 115.822 3.97176 114.753C3.86184 113.172 4.17316 111.884 4.90572 110.886C5.62232 109.89 6.64767 109.298 7.98177 109.109L8.20495 112.317C7.68155 112.402 7.2821 112.654 7.00659 113.074C6.71401 113.479 6.59048 114.009 6.63601 114.664C6.6782 115.27 6.82269 115.733 7.06946 116.053C7.31513 116.356 7.63748 116.494 8.03652 116.467C8.48344 116.436 8.81107 116.188 9.0194 115.725C9.21177 115.262 9.39491 114.552 9.56882 113.593C9.74162 112.619 9.93406 111.812 10.1461 111.172C10.3582 110.531 10.7201 109.969 11.2317 109.484C11.7262 108.985 12.4118 108.696 13.2886 108.619C14.0548 108.566 14.7561 108.734 15.3926 109.123C16.028 109.496 16.549 110.069 16.9557 110.842C17.3453 111.601 17.5768 112.507 17.65 113.561Z" fill="#FFD660"/>
<path d="M18.5347 78.1153L16.6675 84.5207L19.4231 86.4735L18.4358 89.8606L4.01546 79.3841L5.11022 75.6284L22.9022 74.5383L21.9082 77.9483L18.5347 78.1153ZM15.6988 78.2388L8.29224 78.6055L14.3421 82.8931L15.6988 78.2388Z" fill="#FFD660"/>
<path d="M20.0064 50.8465L29.9862 60.4532L28.3064 63.6643L18.9522 61.5079L26.0591 67.96L24.3681 71.1924L10.7725 68.4971L12.3523 65.4774L22.4174 68.0868L14.6218 61.1392L16.2683 57.9918L26.3789 60.4625L18.5156 53.6961L20.0064 50.8465Z" fill="#FFD660"/>
<path d="M33.7762 33.8242L41.5045 45.3201L39.1849 48.1044L30.4962 44.023L36.0818 51.8292L33.7468 54.632L21.0258 49.1289L23.2072 46.5105L32.4953 51.1848L26.3411 42.7489L28.6146 40.0198L37.9764 44.5681L31.7177 36.2951L33.7762 33.8242Z" fill="#FFD660"/>
<path d="M51.19 19.7823L56.2935 32.66L53.4342 34.8867L45.8138 29.0489L49.6092 37.8653L46.731 40.1067L35.4734 32.0214L38.1623 29.9275L46.2421 36.4721L42.0251 26.9193L44.8276 24.7369L53.0063 31.1742L48.6526 21.7582L51.19 19.7823Z" fill="#FFD660"/>
<path d="M56.6972 24.2594C56.0919 23.0594 55.7908 21.8762 55.7938 20.71C55.8112 19.5365 56.1009 18.4944 56.6631 17.5838C57.2395 16.666 58.0348 15.9513 59.0492 15.4399C59.935 14.9932 60.7965 14.7828 61.6338 14.8086C62.4854 14.8271 63.2482 15.007 63.922 15.3481L63.0681 13.6553L66.0897 12.1317L72.0778 24.0029L69.0562 25.5265L68.1807 23.7908C68.076 24.5425 67.7745 25.2769 67.2761 25.9941C66.7847 26.6898 66.0962 27.261 65.2104 27.7076C64.2104 28.2119 63.1663 28.4158 62.0783 28.3193C61.0046 28.2157 59.9906 27.822 59.0365 27.1384C58.0895 26.4333 57.3097 25.4736 56.6972 24.2594ZM66.0622 19.5909C65.6947 18.8623 65.2383 18.3129 64.6932 17.9427C64.1409 17.5583 63.5534 17.3528 62.9307 17.3263C62.3008 17.2855 61.7073 17.4056 61.1502 17.6865C60.593 17.9675 60.1471 18.3625 59.8126 18.8717C59.478 19.3808 59.2941 19.9753 59.2607 20.6552C59.2343 21.3135 59.4013 21.9998 59.7616 22.7141C60.1219 23.4284 60.5819 23.9849 61.1414 24.3837C61.708 24.761 62.2991 24.9736 62.9147 25.0216C63.5446 25.0624 64.131 24.9459 64.6738 24.6721C65.231 24.3912 65.684 23.9925 66.0329 23.4762C66.3745 22.9455 66.5584 22.351 66.5848 21.6927C66.6039 21.02 66.4297 20.3194 66.0622 19.5909Z" fill="#FFD660"/>
<path d="M74.3031 11.3581C74.4845 10.5523 74.8362 9.84904 75.3581 9.2483C75.8951 8.6424 76.5877 8.19477 77.4357 7.90541L78.5754 11.2442L77.7349 11.531C76.7355 11.872 76.0585 12.3651 75.7039 13.0102C75.3644 13.6501 75.3937 14.553 75.7917 15.719L77.9315 21.9878L74.7516 23.0729L70.4563 10.4898L73.6363 9.40472L74.3031 11.3581Z" fill="#FFD660"/>
<path d="M80.6243 13.7807C80.3674 12.4615 80.3987 11.241 80.7181 10.1193C81.0533 8.99455 81.6229 8.06866 82.4267 7.34167C83.2306 6.61467 84.19 6.14264 85.3051 5.92558C86.1532 5.76048 86.9987 5.79149 87.8417 6.01861C88.6816 6.23002 89.3889 6.59764 89.9636 7.12147L88.7571 0.925855L92.1023 0.274658L95.497 17.7072L92.1518 18.3584L91.7756 16.4267C91.4927 17.1501 91.0204 17.7799 90.3587 18.3162C89.697 18.8526 88.8793 19.2155 87.9056 19.405C86.8062 19.6191 85.746 19.532 84.725 19.144C83.704 18.7559 82.8272 18.1034 82.0944 17.1866C81.3743 16.2509 80.8842 15.1156 80.6243 13.7807ZM90.9046 11.8284C90.7487 11.0274 90.4586 10.3748 90.0344 9.8706C89.6071 9.35066 89.0974 8.99347 88.5054 8.79902C87.9102 8.58887 87.3064 8.54341 86.6939 8.66264C86.0814 8.78187 85.545 9.04113 85.0849 9.44042C84.6247 9.8397 84.2863 10.362 84.0697 11.0073C83.8657 11.6338 83.8401 12.3397 83.993 13.1249C84.146 13.9102 84.4376 14.5706 84.8679 15.1063C85.3109 15.6232 85.8221 15.9882 86.4015 16.2014C86.9966 16.4116 87.5926 16.4586 88.1894 16.3424C88.8019 16.2231 89.3461 15.9624 89.822 15.56C90.2948 15.142 90.6332 14.6197 90.8372 13.9932C91.0381 13.3509 91.0606 12.6293 90.9046 11.8284Z" fill="#FFD660"/>
<path d="M103.298 17.4505C102.211 17.4883 101.229 17.3303 100.352 16.9765C99.4743 16.6068 98.7681 16.095 98.2331 15.4412C97.714 14.7868 97.4164 14.0527 97.34 13.2388L100.722 13.1213C100.804 13.6308 101.066 14.0459 101.51 14.3667C101.969 14.687 102.527 14.8357 103.182 14.8129C103.822 14.7907 104.313 14.6456 104.656 14.3775C105.015 14.1089 105.187 13.7747 105.174 13.3749C105.159 12.9432 104.924 12.6312 104.469 12.4388C104.029 12.23 103.325 12.0143 102.357 11.7918C101.357 11.5864 100.533 11.3668 99.8844 11.1332C99.2519 10.899 98.6946 10.5262 98.2126 10.0146C97.7465 9.50247 97.4979 8.79868 97.4668 7.90322C97.4412 7.16767 97.6258 6.48885 98.0204 5.86677C98.431 5.24414 99.022 4.74332 99.7933 4.36431C100.581 3.98474 101.51 3.77635 102.581 3.73913C104.164 3.68413 105.441 4.04 106.413 4.80674C107.383 5.55749 107.94 6.60279 108.083 7.94265L104.869 8.05431C104.802 7.5283 104.564 7.12033 104.154 6.8304C103.759 6.52392 103.233 6.38208 102.578 6.40485C101.97 6.42596 101.502 6.55429 101.174 6.78982C100.862 7.02479 100.713 7.34216 100.727 7.74192C100.743 8.18965 100.979 8.52566 101.435 8.74996C101.89 8.95827 102.594 9.16597 103.546 9.37304C104.513 9.57957 105.313 9.79992 105.946 10.0341C106.578 10.2683 107.128 10.6494 107.595 11.1775C108.077 11.6891 108.341 12.3844 108.388 13.2633C108.414 14.0308 108.222 14.7259 107.812 15.3485C107.417 15.9706 106.826 16.4714 106.039 16.851C105.267 17.214 104.353 17.4138 103.298 17.4505Z" fill="#FFD660"/>
<path d="M138.837 19.4771L132.499 17.3939L130.453 20.0816L127.101 18.98L138.064 4.92409L141.78 6.14551L142.264 23.9631L138.889 22.8541L138.837 19.4771ZM138.81 16.6388L138.696 9.22456L134.205 15.1251L138.81 16.6388Z" fill="#FFD660"/>
<path d="M166.498 22.1321L156.527 31.75L153.38 29.9531L155.882 20.686L149.17 27.5494L146.002 25.7407L149.199 12.2555L152.159 13.9452L149.178 23.906L156.41 16.3727L159.495 18.1338L156.652 28.1452L163.705 20.5375L166.498 22.1321Z" fill="#FFD660"/>
<path d="M182.981 36.5075L171.21 43.8115L168.511 41.3926L172.907 32.8596L164.901 38.1568L162.185 35.7218L168.148 23.2116L170.686 25.4863L165.676 34.5967L174.331 28.7542L176.976 31.125L172.09 40.3137L180.586 34.3609L182.981 36.5075Z" fill="#FFD660"/>
<path d="M196.404 54.4758L183.347 59.1046L181.225 56.1664L187.338 48.7655L178.387 52.2357L176.252 49.278L184.743 38.3252L186.738 41.0883L179.903 48.9224L189.604 45.0578L191.683 47.9377L184.951 55.8745L194.521 51.8683L196.404 54.4758Z" fill="#FFD660"/>
<path d="M191.482 59.4025C192.701 58.8378 193.894 58.5765 195.06 58.6187C196.232 58.6753 197.264 58.9998 198.155 59.592C199.054 60.1988 199.742 61.0176 200.219 62.0484C200.636 62.9485 200.818 63.8166 200.764 64.6525C200.717 65.5029 200.512 66.2591 200.148 66.921L201.869 66.1244L203.291 69.195L191.226 74.7815L189.803 71.7109L191.567 70.8941C190.82 70.7643 190.096 70.4383 189.395 69.9162C188.716 69.4019 188.168 68.6947 187.751 67.7946C187.281 66.7783 187.112 65.7281 187.244 64.6441C187.384 63.5745 187.811 62.5744 188.526 61.6438C189.262 60.721 190.248 59.9739 191.482 59.4025ZM195.836 68.9176C196.577 68.5748 197.141 68.1372 197.529 67.6048C197.932 67.0657 198.157 66.4855 198.204 65.8641C198.266 65.2361 198.166 64.6389 197.903 64.0727C197.641 63.5065 197.261 63.0477 196.763 62.6963C196.265 62.3449 195.677 62.1412 194.999 62.085C194.342 62.0367 193.65 62.1806 192.924 62.5167C192.198 62.8528 191.627 63.2938 191.209 63.8396C190.813 64.3932 190.581 64.9768 190.513 65.5904C190.451 66.2185 190.548 66.8083 190.803 67.36C191.066 67.9262 191.449 68.3923 191.954 68.7582C192.473 69.1174 193.061 69.3211 193.718 69.3695C194.39 69.4111 195.096 69.2605 195.836 68.9176Z" fill="#FFD660"/>
<path d="M203.827 77.5397C204.626 77.7484 205.317 78.1238 205.9 78.6658C206.487 79.2232 206.911 79.9305 207.172 80.7878L203.796 81.8131L203.538 80.9635C203.231 79.9531 202.761 79.2597 202.128 78.8834C201.5 78.5223 200.597 78.5208 199.418 78.8789L193.08 80.804L192.103 77.5891L204.825 73.7249L205.802 76.9398L203.827 77.5397Z" fill="#FFD660"/>
<path d="M201.329 84.4718C202.657 84.2657 203.875 84.3437 204.984 84.7059C206.095 85.084 206.999 85.6886 207.694 86.5197C208.39 87.3508 208.825 88.3276 208.999 89.4502C209.132 90.3039 209.069 91.1476 208.81 91.9813C208.566 92.8124 208.172 93.5051 207.626 94.0593L213.864 93.0912L214.387 96.4588L196.837 99.1829L196.314 95.8153L198.259 95.5134C197.546 95.203 196.935 94.7069 196.424 94.0251C195.914 93.3434 195.582 92.5124 195.43 91.5321C195.258 90.4254 195.386 89.3693 195.813 88.364C196.239 87.3586 196.925 86.5074 197.869 85.8103C198.832 85.1266 199.985 84.6804 201.329 84.4718ZM202.887 94.8193C203.693 94.6941 204.356 94.4293 204.877 94.0247C205.412 93.6177 205.789 93.1221 206.006 92.5379C206.238 91.9513 206.307 91.3496 206.211 90.733C206.115 90.1164 205.877 89.5705 205.495 89.0954C205.114 88.6203 204.605 88.2621 203.969 88.0209C203.35 87.7931 202.646 87.7405 201.855 87.8632C201.065 87.9859 200.394 88.252 199.842 88.6615C199.309 89.0843 198.924 89.5811 198.689 90.1519C198.456 90.7386 198.387 91.3323 198.48 91.9331C198.576 92.5497 198.815 93.1035 199.199 93.5944C199.599 94.0829 200.108 94.4411 200.726 94.6689C201.36 94.8943 202.081 94.9444 202.887 94.8193Z" fill="#FFD660"/>
</svg>
