<svg width="216" height="175" viewBox="0 0 216 175" fill="none" xmlns="http://www.w3.org/2000/svg">
<mask id="mask0_462_4624" style="mask-type:alpha" maskUnits="userSpaceOnUse" x="70" y="0" width="146" height="122">
<rect x="70.894" y="19.9026" width="144.677" height="101.81" rx="3" fill="white"/>
<path d="M70.894 3C70.894 1.34315 72.2372 0 73.894 0H128.606C139.009 0 147.443 8.43336 147.443 18.8364V18.8364C147.443 19.4253 146.965 19.9027 146.377 19.9027H73.894C72.2372 19.9027 70.894 18.5595 70.894 16.9027V3Z" fill="white"/>
</mask>
<g mask="url(#mask0_462_4624)">
<circle cx="73.1902" cy="2.29635" r="1.53097" fill="white"/>
<circle cx="80.0798" cy="2.29635" r="1.53097" fill="white"/>
<circle cx="86.969" cy="2.29635" r="1.53097" fill="white"/>
<circle cx="93.8586" cy="2.29635" r="1.53097" fill="white"/>
<circle cx="100.748" cy="2.29635" r="1.53097" fill="white"/>
<circle cx="107.637" cy="2.29635" r="1.53097" fill="white"/>
<circle cx="114.527" cy="2.29635" r="1.53097" fill="white"/>
<circle cx="121.416" cy="2.29635" r="1.53097" fill="white"/>
<circle cx="128.305" cy="2.29635" r="1.53097" fill="white"/>
<circle cx="135.195" cy="2.29635" r="1.53097" fill="white"/>
<circle cx="142.084" cy="2.29635" r="1.53097" fill="white"/>
<circle cx="148.973" cy="2.29635" r="1.53097" fill="white"/>
<circle cx="155.863" cy="2.29635" r="1.53097" fill="white"/>
<circle cx="162.752" cy="2.29635" r="1.53097" fill="white"/>
<circle cx="169.642" cy="2.29635" r="1.53097" fill="white"/>
<circle cx="176.531" cy="2.29635" r="1.53097" fill="white"/>
<circle cx="183.42" cy="2.29635" r="1.53097" fill="white"/>
<circle cx="190.31" cy="2.29635" r="1.53097" fill="white"/>
<circle cx="197.199" cy="2.29635" r="1.53097" fill="white"/>
<circle cx="204.089" cy="2.29635" r="1.53097" fill="white"/>
<circle cx="210.978" cy="2.29635" r="1.53097" fill="white"/>
<circle cx="73.1902" cy="9.18576" r="1.53097" fill="white"/>
<circle cx="80.0798" cy="9.18576" r="1.53097" fill="white"/>
<circle cx="86.969" cy="9.18576" r="1.53097" fill="white"/>
<circle cx="93.8586" cy="9.18576" r="1.53097" fill="white"/>
<circle cx="100.748" cy="9.18576" r="1.53097" fill="white"/>
<circle cx="107.637" cy="9.18576" r="1.53097" fill="white"/>
<circle cx="114.527" cy="9.18576" r="1.53097" fill="white"/>
<circle cx="121.416" cy="9.18576" r="1.53097" fill="white"/>
<circle cx="128.305" cy="9.18576" r="1.53097" fill="white"/>
<circle cx="135.195" cy="9.18576" r="1.53097" fill="white"/>
<circle cx="142.084" cy="9.18576" r="1.53097" fill="white"/>
<circle cx="148.973" cy="9.18576" r="1.53097" fill="white"/>
<circle cx="155.863" cy="9.18576" r="1.53097" fill="white"/>
<circle cx="162.752" cy="9.18576" r="1.53097" fill="white"/>
<circle cx="169.642" cy="9.18576" r="1.53097" fill="white"/>
<circle cx="176.531" cy="9.18576" r="1.53097" fill="white"/>
<circle cx="183.42" cy="9.18576" r="1.53097" fill="white"/>
<circle cx="190.31" cy="9.18576" r="1.53097" fill="white"/>
<circle cx="197.199" cy="9.18576" r="1.53097" fill="white"/>
<circle cx="204.089" cy="9.18576" r="1.53097" fill="white"/>
<circle cx="210.978" cy="9.18576" r="1.53097" fill="white"/>
<circle cx="73.1902" cy="16.0752" r="1.53097" fill="white"/>
<circle cx="80.0798" cy="16.0752" r="1.53097" fill="white"/>
<circle cx="86.969" cy="16.0752" r="1.53097" fill="white"/>
<circle cx="93.8586" cy="16.0752" r="1.53097" fill="white"/>
<circle cx="100.748" cy="16.0752" r="1.53097" fill="white"/>
<circle cx="107.637" cy="16.0752" r="1.53097" fill="white"/>
<circle cx="114.527" cy="16.0752" r="1.53097" fill="white"/>
<circle cx="121.416" cy="16.0752" r="1.53097" fill="white"/>
<circle cx="128.305" cy="16.0752" r="1.53097" fill="white"/>
<circle cx="135.195" cy="16.0752" r="1.53097" fill="white"/>
<circle cx="142.084" cy="16.0752" r="1.53097" fill="white"/>
<circle cx="148.973" cy="16.0752" r="1.53097" fill="white"/>
<circle cx="155.863" cy="16.0752" r="1.53097" fill="white"/>
<circle cx="162.752" cy="16.0752" r="1.53097" fill="white"/>
<circle cx="169.642" cy="16.0752" r="1.53097" fill="white"/>
<circle cx="176.531" cy="16.0752" r="1.53097" fill="white"/>
<circle cx="183.42" cy="16.0752" r="1.53097" fill="white"/>
<circle cx="190.31" cy="16.0752" r="1.53097" fill="white"/>
<circle cx="197.199" cy="16.0752" r="1.53097" fill="white"/>
<circle cx="204.089" cy="16.0752" r="1.53097" fill="white"/>
<circle cx="210.978" cy="16.0752" r="1.53097" fill="white"/>
<circle cx="73.1902" cy="22.9646" r="1.53097" fill="white"/>
<circle cx="80.0798" cy="22.9646" r="1.53097" fill="white"/>
<circle cx="86.969" cy="22.9646" r="1.53097" fill="white"/>
<circle cx="93.8586" cy="22.9646" r="1.53097" fill="white"/>
<circle cx="100.748" cy="22.9646" r="1.53097" fill="white"/>
<circle cx="107.637" cy="22.9646" r="1.53097" fill="white"/>
<circle cx="114.527" cy="22.9646" r="1.53097" fill="white"/>
<circle cx="121.416" cy="22.9646" r="1.53097" fill="white"/>
<circle cx="128.305" cy="22.9646" r="1.53097" fill="white"/>
<circle cx="135.195" cy="22.9646" r="1.53097" fill="white"/>
<circle cx="142.084" cy="22.9646" r="1.53097" fill="white"/>
<circle cx="148.973" cy="22.9646" r="1.53097" fill="white"/>
<circle cx="155.863" cy="22.9646" r="1.53097" fill="white"/>
<circle cx="162.752" cy="22.9646" r="1.53097" fill="white"/>
<circle cx="169.642" cy="22.9646" r="1.53097" fill="white"/>
<circle cx="176.531" cy="22.9646" r="1.53097" fill="white"/>
<circle cx="183.42" cy="22.9646" r="1.53097" fill="white"/>
<circle cx="190.31" cy="22.9646" r="1.53097" fill="white"/>
<circle cx="197.199" cy="22.9646" r="1.53097" fill="white"/>
<circle cx="204.089" cy="22.9646" r="1.53097" fill="white"/>
<circle cx="210.978" cy="22.9646" r="1.53097" fill="white"/>
<circle cx="73.1902" cy="29.854" r="1.53097" fill="white"/>
<circle cx="80.0798" cy="29.854" r="1.53097" fill="white"/>
<circle cx="86.969" cy="29.854" r="1.53097" fill="white"/>
<circle cx="93.8586" cy="29.854" r="1.53097" fill="white"/>
<circle cx="100.748" cy="29.854" r="1.53097" fill="white"/>
<circle cx="107.637" cy="29.854" r="1.53097" fill="white"/>
<circle cx="114.527" cy="29.854" r="1.53097" fill="white"/>
<circle cx="121.416" cy="29.854" r="1.53097" fill="white"/>
<circle cx="128.305" cy="29.854" r="1.53097" fill="white"/>
<circle cx="135.195" cy="29.854" r="1.53097" fill="white"/>
<circle cx="142.084" cy="29.854" r="1.53097" fill="white"/>
<circle cx="148.973" cy="29.854" r="1.53097" fill="white"/>
<circle cx="155.863" cy="29.854" r="1.53097" fill="white"/>
<circle cx="162.752" cy="29.854" r="1.53097" fill="white"/>
<circle cx="169.642" cy="29.854" r="1.53097" fill="white"/>
<circle cx="176.531" cy="29.854" r="1.53097" fill="white"/>
<circle cx="183.42" cy="29.854" r="1.53097" fill="white"/>
<circle cx="190.31" cy="29.854" r="1.53097" fill="white"/>
<circle cx="197.199" cy="29.854" r="1.53097" fill="white"/>
<circle cx="204.089" cy="29.854" r="1.53097" fill="white"/>
<circle cx="210.978" cy="29.854" r="1.53097" fill="white"/>
<circle cx="73.1902" cy="36.7434" r="1.53097" fill="white"/>
<circle cx="80.0798" cy="36.7434" r="1.53097" fill="white"/>
<circle cx="86.969" cy="36.7434" r="1.53097" fill="white"/>
<circle cx="93.8586" cy="36.7434" r="1.53097" fill="white"/>
<circle cx="100.748" cy="36.7434" r="1.53097" fill="white"/>
<circle cx="107.637" cy="36.7434" r="1.53097" fill="white"/>
<circle cx="114.527" cy="36.7434" r="1.53097" fill="white"/>
<circle cx="121.416" cy="36.7434" r="1.53097" fill="white"/>
<circle cx="128.305" cy="36.7434" r="1.53097" fill="white"/>
<circle cx="135.195" cy="36.7434" r="1.53097" fill="white"/>
<circle cx="142.084" cy="36.7434" r="1.53097" fill="white"/>
<circle cx="148.973" cy="36.7434" r="1.53097" fill="white"/>
<circle cx="155.863" cy="36.7434" r="1.53097" fill="white"/>
<circle cx="162.752" cy="36.7434" r="1.53097" fill="white"/>
<circle cx="169.642" cy="36.7434" r="1.53097" fill="white"/>
<circle cx="176.531" cy="36.7434" r="1.53097" fill="white"/>
<circle cx="183.42" cy="36.7434" r="1.53097" fill="white"/>
<circle cx="190.31" cy="36.7434" r="1.53097" fill="white"/>
<circle cx="197.199" cy="36.7434" r="1.53097" fill="white"/>
<circle cx="204.089" cy="36.7434" r="1.53097" fill="white"/>
<circle cx="210.978" cy="36.7434" r="1.53097" fill="white"/>
<circle cx="73.1902" cy="43.6328" r="1.53097" fill="white"/>
<circle cx="80.0798" cy="43.6328" r="1.53097" fill="white"/>
<circle cx="86.969" cy="43.6328" r="1.53097" fill="white"/>
<circle cx="93.8586" cy="43.6328" r="1.53097" fill="white"/>
<circle cx="100.748" cy="43.6328" r="1.53097" fill="white"/>
<circle cx="107.637" cy="43.6328" r="1.53097" fill="white"/>
<circle cx="114.527" cy="43.6328" r="1.53097" fill="white"/>
<circle cx="121.416" cy="43.6328" r="1.53097" fill="white"/>
<circle cx="128.305" cy="43.6328" r="1.53097" fill="white"/>
<circle cx="135.195" cy="43.6328" r="1.53097" fill="white"/>
<circle cx="142.084" cy="43.6328" r="1.53097" fill="white"/>
<circle cx="148.973" cy="43.6328" r="1.53097" fill="white"/>
<circle cx="155.863" cy="43.6328" r="1.53097" fill="white"/>
<circle cx="162.752" cy="43.6328" r="1.53097" fill="white"/>
<circle cx="169.642" cy="43.6328" r="1.53097" fill="white"/>
<circle cx="176.531" cy="43.6328" r="1.53097" fill="white"/>
<circle cx="183.42" cy="43.6328" r="1.53097" fill="white"/>
<circle cx="190.31" cy="43.6328" r="1.53097" fill="white"/>
<circle cx="197.199" cy="43.6328" r="1.53097" fill="white"/>
<circle cx="204.089" cy="43.6328" r="1.53097" fill="white"/>
<circle cx="210.978" cy="43.6328" r="1.53097" fill="white"/>
<circle cx="73.1902" cy="50.5222" r="1.53097" fill="white"/>
<circle cx="80.0798" cy="50.5222" r="1.53097" fill="white"/>
<circle cx="86.969" cy="50.5222" r="1.53097" fill="white"/>
<circle cx="93.8586" cy="50.5222" r="1.53097" fill="white"/>
<circle cx="100.748" cy="50.5222" r="1.53097" fill="white"/>
<circle cx="107.637" cy="50.5222" r="1.53097" fill="white"/>
<circle cx="114.527" cy="50.5222" r="1.53097" fill="white"/>
<circle cx="121.416" cy="50.5222" r="1.53097" fill="white"/>
<circle cx="128.305" cy="50.5222" r="1.53097" fill="white"/>
<circle cx="135.195" cy="50.5222" r="1.53097" fill="white"/>
<circle cx="142.084" cy="50.5222" r="1.53097" fill="white"/>
<circle cx="148.973" cy="50.5222" r="1.53097" fill="white"/>
<circle cx="155.863" cy="50.5222" r="1.53097" fill="white"/>
<circle cx="162.752" cy="50.5222" r="1.53097" fill="white"/>
<circle cx="169.642" cy="50.5222" r="1.53097" fill="white"/>
<circle cx="176.531" cy="50.5222" r="1.53097" fill="white"/>
<circle cx="183.42" cy="50.5222" r="1.53097" fill="white"/>
<circle cx="190.31" cy="50.5222" r="1.53097" fill="white"/>
<circle cx="197.199" cy="50.5222" r="1.53097" fill="white"/>
<circle cx="204.089" cy="50.5222" r="1.53097" fill="white"/>
<circle cx="210.978" cy="50.5222" r="1.53097" fill="white"/>
<circle cx="73.1902" cy="57.4116" r="1.53097" fill="white"/>
<circle cx="80.0798" cy="57.4116" r="1.53097" fill="white"/>
<circle cx="86.969" cy="57.4116" r="1.53097" fill="white"/>
<circle cx="93.8586" cy="57.4116" r="1.53097" fill="white"/>
<circle cx="100.748" cy="57.4116" r="1.53097" fill="white"/>
<circle cx="107.637" cy="57.4116" r="1.53097" fill="white"/>
<circle cx="114.527" cy="57.4116" r="1.53097" fill="white"/>
<circle cx="121.416" cy="57.4116" r="1.53097" fill="white"/>
<circle cx="128.305" cy="57.4116" r="1.53097" fill="white"/>
<circle cx="135.195" cy="57.4116" r="1.53097" fill="white"/>
<circle cx="142.084" cy="57.4116" r="1.53097" fill="white"/>
<circle cx="148.973" cy="57.4116" r="1.53097" fill="white"/>
<circle cx="155.863" cy="57.4116" r="1.53097" fill="white"/>
<circle cx="162.752" cy="57.4116" r="1.53097" fill="white"/>
<circle cx="169.642" cy="57.4116" r="1.53097" fill="white"/>
<circle cx="176.531" cy="57.4116" r="1.53097" fill="white"/>
<circle cx="183.42" cy="57.4116" r="1.53097" fill="white"/>
<circle cx="190.31" cy="57.4116" r="1.53097" fill="white"/>
<circle cx="197.199" cy="57.4116" r="1.53097" fill="white"/>
<circle cx="204.089" cy="57.4116" r="1.53097" fill="white"/>
<circle cx="210.978" cy="57.4116" r="1.53097" fill="white"/>
<circle cx="73.1902" cy="64.301" r="1.53097" fill="white"/>
<circle cx="80.0798" cy="64.301" r="1.53097" fill="white"/>
<circle cx="86.969" cy="64.301" r="1.53097" fill="white"/>
<circle cx="93.8586" cy="64.301" r="1.53097" fill="white"/>
<circle cx="100.748" cy="64.301" r="1.53097" fill="white"/>
<circle cx="107.637" cy="64.301" r="1.53097" fill="white"/>
<circle cx="114.527" cy="64.301" r="1.53097" fill="white"/>
<circle cx="121.416" cy="64.301" r="1.53097" fill="white"/>
<circle cx="128.305" cy="64.301" r="1.53097" fill="white"/>
<circle cx="135.195" cy="64.301" r="1.53097" fill="white"/>
<circle cx="142.084" cy="64.301" r="1.53097" fill="white"/>
<circle cx="148.973" cy="64.301" r="1.53097" fill="white"/>
<circle cx="155.863" cy="64.301" r="1.53097" fill="white"/>
<circle cx="162.752" cy="64.301" r="1.53097" fill="white"/>
<circle cx="169.642" cy="64.301" r="1.53097" fill="white"/>
<circle cx="176.531" cy="64.301" r="1.53097" fill="white"/>
<circle cx="183.42" cy="64.301" r="1.53097" fill="white"/>
<circle cx="190.31" cy="64.301" r="1.53097" fill="white"/>
<circle cx="197.199" cy="64.301" r="1.53097" fill="white"/>
<circle cx="204.089" cy="64.301" r="1.53097" fill="white"/>
<circle cx="210.978" cy="64.301" r="1.53097" fill="white"/>
<circle cx="73.1902" cy="71.1902" r="1.53097" fill="white"/>
<circle cx="80.0798" cy="71.1902" r="1.53097" fill="white"/>
<circle cx="86.969" cy="71.1902" r="1.53097" fill="white"/>
<circle cx="93.8586" cy="71.1902" r="1.53097" fill="white"/>
<circle cx="100.748" cy="71.1902" r="1.53097" fill="white"/>
<circle cx="107.637" cy="71.1902" r="1.53097" fill="white"/>
<circle cx="114.527" cy="71.1902" r="1.53097" fill="white"/>
<circle cx="121.416" cy="71.1902" r="1.53097" fill="white"/>
<circle cx="128.305" cy="71.1902" r="1.53097" fill="white"/>
<circle cx="135.195" cy="71.1902" r="1.53097" fill="white"/>
<circle cx="142.084" cy="71.1902" r="1.53097" fill="white"/>
<circle cx="148.973" cy="71.1902" r="1.53097" fill="white"/>
<circle cx="155.863" cy="71.1902" r="1.53097" fill="white"/>
<circle cx="162.752" cy="71.1902" r="1.53097" fill="white"/>
<circle cx="169.642" cy="71.1902" r="1.53097" fill="white"/>
<circle cx="176.531" cy="71.1902" r="1.53097" fill="white"/>
<circle cx="183.42" cy="71.1902" r="1.53097" fill="white"/>
<circle cx="190.31" cy="71.1902" r="1.53097" fill="white"/>
<circle cx="197.199" cy="71.1902" r="1.53097" fill="white"/>
<circle cx="204.089" cy="71.1902" r="1.53097" fill="white"/>
<circle cx="210.978" cy="71.1902" r="1.53097" fill="white"/>
<circle cx="73.1902" cy="78.0796" r="1.53097" fill="white"/>
<circle cx="80.0798" cy="78.0796" r="1.53097" fill="white"/>
<circle cx="86.969" cy="78.0796" r="1.53097" fill="white"/>
<circle cx="93.8586" cy="78.0796" r="1.53097" fill="white"/>
<circle cx="100.748" cy="78.0796" r="1.53097" fill="white"/>
<circle cx="107.637" cy="78.0796" r="1.53097" fill="white"/>
<circle cx="114.527" cy="78.0796" r="1.53097" fill="white"/>
<circle cx="121.416" cy="78.0796" r="1.53097" fill="white"/>
<circle cx="128.305" cy="78.0796" r="1.53097" fill="white"/>
<circle cx="135.195" cy="78.0796" r="1.53097" fill="white"/>
<circle cx="142.084" cy="78.0796" r="1.53097" fill="white"/>
<circle cx="148.973" cy="78.0796" r="1.53097" fill="white"/>
<circle cx="155.863" cy="78.0796" r="1.53097" fill="white"/>
<circle cx="162.752" cy="78.0796" r="1.53097" fill="white"/>
<circle cx="169.642" cy="78.0796" r="1.53097" fill="white"/>
<circle cx="176.531" cy="78.0796" r="1.53097" fill="white"/>
<circle cx="183.42" cy="78.0796" r="1.53097" fill="white"/>
<circle cx="190.31" cy="78.0796" r="1.53097" fill="white"/>
<circle cx="197.199" cy="78.0796" r="1.53097" fill="white"/>
<circle cx="204.089" cy="78.0796" r="1.53097" fill="white"/>
<circle cx="210.978" cy="78.0796" r="1.53097" fill="white"/>
<circle cx="73.1902" cy="84.969" r="1.53097" fill="white"/>
<circle cx="80.0798" cy="84.969" r="1.53097" fill="white"/>
<circle cx="86.969" cy="84.969" r="1.53097" fill="white"/>
<circle cx="93.8586" cy="84.969" r="1.53097" fill="white"/>
<circle cx="100.748" cy="84.969" r="1.53097" fill="white"/>
<circle cx="107.637" cy="84.969" r="1.53097" fill="white"/>
<circle cx="114.527" cy="84.969" r="1.53097" fill="white"/>
<circle cx="121.416" cy="84.969" r="1.53097" fill="white"/>
<circle cx="128.305" cy="84.969" r="1.53097" fill="white"/>
<circle cx="135.195" cy="84.969" r="1.53097" fill="white"/>
<circle cx="142.084" cy="84.969" r="1.53097" fill="white"/>
<circle cx="148.973" cy="84.969" r="1.53097" fill="white"/>
<circle cx="155.863" cy="84.969" r="1.53097" fill="white"/>
<circle cx="162.752" cy="84.969" r="1.53097" fill="white"/>
<circle cx="169.642" cy="84.969" r="1.53097" fill="white"/>
<circle cx="176.531" cy="84.969" r="1.53097" fill="white"/>
<circle cx="183.42" cy="84.969" r="1.53097" fill="white"/>
<circle cx="190.31" cy="84.969" r="1.53097" fill="white"/>
<circle cx="197.199" cy="84.969" r="1.53097" fill="white"/>
<circle cx="204.089" cy="84.969" r="1.53097" fill="white"/>
<circle cx="210.978" cy="84.969" r="1.53097" fill="white"/>
<circle cx="73.1902" cy="91.8584" r="1.53097" fill="white"/>
<circle cx="80.0798" cy="91.8584" r="1.53097" fill="white"/>
<circle cx="86.969" cy="91.8584" r="1.53097" fill="white"/>
<circle cx="93.8586" cy="91.8584" r="1.53097" fill="white"/>
<circle cx="100.748" cy="91.8584" r="1.53097" fill="white"/>
<circle cx="107.637" cy="91.8584" r="1.53097" fill="white"/>
<circle cx="114.527" cy="91.8584" r="1.53097" fill="white"/>
<circle cx="121.416" cy="91.8584" r="1.53097" fill="white"/>
<circle cx="128.305" cy="91.8584" r="1.53097" fill="white"/>
<circle cx="135.195" cy="91.8584" r="1.53097" fill="white"/>
<circle cx="142.084" cy="91.8584" r="1.53097" fill="white"/>
<circle cx="148.973" cy="91.8584" r="1.53097" fill="white"/>
<circle cx="155.863" cy="91.8584" r="1.53097" fill="white"/>
<circle cx="162.752" cy="91.8584" r="1.53097" fill="white"/>
<circle cx="169.642" cy="91.8584" r="1.53097" fill="white"/>
<circle cx="176.531" cy="91.8584" r="1.53097" fill="white"/>
<circle cx="183.42" cy="91.8584" r="1.53097" fill="white"/>
<circle cx="190.31" cy="91.8584" r="1.53097" fill="white"/>
<circle cx="197.199" cy="91.8584" r="1.53097" fill="white"/>
<circle cx="204.089" cy="91.8584" r="1.53097" fill="white"/>
<circle cx="210.978" cy="91.8584" r="1.53097" fill="white"/>
<circle cx="73.1902" cy="98.7478" r="1.53097" fill="white"/>
<circle cx="80.0798" cy="98.7478" r="1.53097" fill="white"/>
<circle cx="86.969" cy="98.7478" r="1.53097" fill="white"/>
<circle cx="93.8586" cy="98.7478" r="1.53097" fill="white"/>
<circle cx="100.748" cy="98.7478" r="1.53097" fill="white"/>
<circle cx="107.637" cy="98.7478" r="1.53097" fill="white"/>
<circle cx="114.527" cy="98.7478" r="1.53097" fill="white"/>
<circle cx="121.416" cy="98.7478" r="1.53097" fill="white"/>
<circle cx="128.305" cy="98.7478" r="1.53097" fill="white"/>
<circle cx="135.195" cy="98.7478" r="1.53097" fill="white"/>
<circle cx="142.084" cy="98.7478" r="1.53097" fill="white"/>
<circle cx="148.973" cy="98.7478" r="1.53097" fill="white"/>
<circle cx="155.863" cy="98.7478" r="1.53097" fill="white"/>
<circle cx="162.752" cy="98.7478" r="1.53097" fill="white"/>
<circle cx="169.642" cy="98.7478" r="1.53097" fill="white"/>
<circle cx="176.531" cy="98.7478" r="1.53097" fill="white"/>
<circle cx="183.42" cy="98.7478" r="1.53097" fill="white"/>
<circle cx="190.31" cy="98.7478" r="1.53097" fill="white"/>
<circle cx="197.199" cy="98.7478" r="1.53097" fill="white"/>
<circle cx="204.089" cy="98.7478" r="1.53097" fill="white"/>
<circle cx="210.978" cy="98.7478" r="1.53097" fill="white"/>
<circle cx="73.1902" cy="105.637" r="1.53097" fill="white"/>
<circle cx="80.0798" cy="105.637" r="1.53097" fill="white"/>
<circle cx="86.969" cy="105.637" r="1.53097" fill="white"/>
<circle cx="93.8586" cy="105.637" r="1.53097" fill="white"/>
<circle cx="100.748" cy="105.637" r="1.53097" fill="white"/>
<circle cx="107.637" cy="105.637" r="1.53097" fill="white"/>
<circle cx="114.527" cy="105.637" r="1.53097" fill="white"/>
<circle cx="121.416" cy="105.637" r="1.53097" fill="white"/>
<circle cx="128.305" cy="105.637" r="1.53097" fill="white"/>
<circle cx="135.195" cy="105.637" r="1.53097" fill="white"/>
<circle cx="142.084" cy="105.637" r="1.53097" fill="white"/>
<circle cx="148.973" cy="105.637" r="1.53097" fill="white"/>
<circle cx="155.863" cy="105.637" r="1.53097" fill="white"/>
<circle cx="162.752" cy="105.637" r="1.53097" fill="white"/>
<circle cx="169.642" cy="105.637" r="1.53097" fill="white"/>
<circle cx="176.531" cy="105.637" r="1.53097" fill="white"/>
<circle cx="183.42" cy="105.637" r="1.53097" fill="white"/>
<circle cx="190.31" cy="105.637" r="1.53097" fill="white"/>
<circle cx="197.199" cy="105.637" r="1.53097" fill="white"/>
<circle cx="204.089" cy="105.637" r="1.53097" fill="white"/>
<circle cx="210.978" cy="105.637" r="1.53097" fill="white"/>
<circle cx="73.1902" cy="112.527" r="1.53097" fill="white"/>
<circle cx="80.0798" cy="112.527" r="1.53097" fill="white"/>
<circle cx="86.969" cy="112.527" r="1.53097" fill="white"/>
<circle cx="93.8586" cy="112.527" r="1.53097" fill="white"/>
<circle cx="100.748" cy="112.527" r="1.53097" fill="white"/>
<circle cx="107.637" cy="112.527" r="1.53097" fill="white"/>
<circle cx="114.527" cy="112.527" r="1.53097" fill="white"/>
<circle cx="121.416" cy="112.527" r="1.53097" fill="white"/>
<circle cx="128.305" cy="112.527" r="1.53097" fill="white"/>
<circle cx="135.195" cy="112.527" r="1.53097" fill="white"/>
<circle cx="142.084" cy="112.527" r="1.53097" fill="white"/>
<circle cx="148.973" cy="112.527" r="1.53097" fill="white"/>
<circle cx="155.863" cy="112.527" r="1.53097" fill="white"/>
<circle cx="162.752" cy="112.527" r="1.53097" fill="white"/>
<circle cx="169.642" cy="112.527" r="1.53097" fill="white"/>
<circle cx="176.531" cy="112.527" r="1.53097" fill="white"/>
<circle cx="183.42" cy="112.527" r="1.53097" fill="white"/>
<circle cx="190.31" cy="112.527" r="1.53097" fill="white"/>
<circle cx="197.199" cy="112.527" r="1.53097" fill="white"/>
<circle cx="204.089" cy="112.527" r="1.53097" fill="white"/>
<circle cx="210.978" cy="112.527" r="1.53097" fill="white"/>
<circle cx="73.1902" cy="119.416" r="1.53097" fill="white"/>
<circle cx="80.0798" cy="119.416" r="1.53097" fill="white"/>
<circle cx="86.969" cy="119.416" r="1.53097" fill="white"/>
<circle cx="93.8586" cy="119.416" r="1.53097" fill="white"/>
<circle cx="100.748" cy="119.416" r="1.53097" fill="white"/>
<circle cx="107.637" cy="119.416" r="1.53097" fill="white"/>
<circle cx="114.527" cy="119.416" r="1.53097" fill="white"/>
<circle cx="121.416" cy="119.416" r="1.53097" fill="white"/>
<circle cx="128.305" cy="119.416" r="1.53097" fill="white"/>
<circle cx="135.195" cy="119.416" r="1.53097" fill="white"/>
<circle cx="142.084" cy="119.416" r="1.53097" fill="white"/>
<circle cx="148.973" cy="119.416" r="1.53097" fill="white"/>
<circle cx="155.863" cy="119.416" r="1.53097" fill="white"/>
<circle cx="162.752" cy="119.416" r="1.53097" fill="white"/>
<circle cx="169.642" cy="119.416" r="1.53097" fill="white"/>
<circle cx="176.531" cy="119.416" r="1.53097" fill="white"/>
<circle cx="183.42" cy="119.416" r="1.53097" fill="white"/>
<circle cx="190.31" cy="119.416" r="1.53097" fill="white"/>
<circle cx="197.199" cy="119.416" r="1.53097" fill="white"/>
<circle cx="204.089" cy="119.416" r="1.53097" fill="white"/>
<circle cx="210.978" cy="119.416" r="1.53097" fill="white"/>
</g>
<rect x="36.4468" y="42.1018" width="144.677" height="101.81" rx="3" fill="white" stroke="black" stroke-width="4"/>
<path d="M36.4468 25.1992C36.4468 23.5424 37.7899 22.1992 39.4468 22.1992H94.159C104.562 22.1992 112.995 30.6326 112.995 41.0357V41.0357C112.995 41.6245 112.518 42.1019 111.929 42.1019H39.4468C37.7899 42.1019 36.4468 40.7587 36.4468 39.1019V25.1992Z" fill="white" stroke="black" stroke-width="4"/>
<mask id="mask1_462_4624" style="mask-type:alpha" maskUnits="userSpaceOnUse" x="37" y="22" width="145" height="122">
<rect x="37.2124" y="42.1018" width="144.677" height="101.81" rx="3" fill="white"/>
<path d="M37.2124 25.1992C37.2124 23.5424 38.5555 22.1992 40.2124 22.1992H94.9246C105.328 22.1992 113.761 30.6326 113.761 41.0357V41.0357C113.761 41.6245 113.284 42.1019 112.695 42.1019H40.2124C38.5555 42.1019 37.2124 40.7587 37.2124 39.1019V25.1992Z" fill="white"/>
</mask>
<g mask="url(#mask1_462_4624)">
<circle cx="42.571" cy="26.792" r="1.53097" fill="black"/>
<circle cx="49.4602" cy="26.792" r="1.53097" fill="black"/>
<circle cx="56.3493" cy="26.792" r="1.53097" fill="black"/>
<circle cx="63.239" cy="26.792" r="1.53097" fill="black"/>
<circle cx="70.1281" cy="26.792" r="1.53097" fill="black"/>
<circle cx="77.0178" cy="26.792" r="1.53097" fill="black"/>
<circle cx="83.907" cy="26.792" r="1.53097" fill="black"/>
<circle cx="90.7966" cy="26.792" r="1.53097" fill="black"/>
<circle cx="97.6858" cy="26.792" r="1.53097" fill="black"/>
<circle cx="104.575" cy="26.792" r="1.53097" fill="black"/>
<circle cx="111.465" cy="26.792" r="1.53097" fill="black"/>
<circle cx="118.354" cy="26.792" r="1.53097" fill="black"/>
<circle cx="125.243" cy="26.792" r="1.53097" fill="black"/>
<circle cx="132.133" cy="26.792" r="1.53097" fill="black"/>
<circle cx="139.022" cy="26.792" r="1.53097" fill="black"/>
<circle cx="145.911" cy="26.792" r="1.53097" fill="black"/>
<circle cx="152.801" cy="26.792" r="1.53097" fill="black"/>
<circle cx="159.69" cy="26.792" r="1.53097" fill="black"/>
<circle cx="166.58" cy="26.792" r="1.53097" fill="black"/>
<circle cx="173.469" cy="26.792" r="1.53097" fill="black"/>
<circle cx="180.359" cy="26.792" r="1.53097" fill="black"/>
<circle cx="42.571" cy="33.6814" r="1.53097" fill="black"/>
<circle cx="49.4602" cy="33.6814" r="1.53097" fill="black"/>
<circle cx="56.3493" cy="33.6814" r="1.53097" fill="black"/>
<circle cx="63.239" cy="33.6814" r="1.53097" fill="black"/>
<circle cx="70.1281" cy="33.6814" r="1.53097" fill="black"/>
<circle cx="77.0178" cy="33.6814" r="1.53097" fill="black"/>
<circle cx="83.907" cy="33.6814" r="1.53097" fill="black"/>
<circle cx="90.7966" cy="33.6814" r="1.53097" fill="black"/>
<circle cx="97.6858" cy="33.6814" r="1.53097" fill="black"/>
<circle cx="104.575" cy="33.6814" r="1.53097" fill="black"/>
<circle cx="111.465" cy="33.6814" r="1.53097" fill="black"/>
<circle cx="118.354" cy="33.6814" r="1.53097" fill="black"/>
<circle cx="125.243" cy="33.6814" r="1.53097" fill="black"/>
<circle cx="132.133" cy="33.6814" r="1.53097" fill="black"/>
<circle cx="139.022" cy="33.6814" r="1.53097" fill="black"/>
<circle cx="145.911" cy="33.6814" r="1.53097" fill="black"/>
<circle cx="152.801" cy="33.6814" r="1.53097" fill="black"/>
<circle cx="159.69" cy="33.6814" r="1.53097" fill="black"/>
<circle cx="166.58" cy="33.6814" r="1.53097" fill="black"/>
<circle cx="173.469" cy="33.6814" r="1.53097" fill="black"/>
<circle cx="180.359" cy="33.6814" r="1.53097" fill="black"/>
<circle cx="42.571" cy="40.5708" r="1.53097" fill="black"/>
<circle cx="49.4602" cy="40.5708" r="1.53097" fill="black"/>
<circle cx="56.3493" cy="40.5708" r="1.53097" fill="black"/>
<circle cx="63.239" cy="40.5708" r="1.53097" fill="black"/>
<circle cx="70.1281" cy="40.5708" r="1.53097" fill="black"/>
<circle cx="77.0178" cy="40.5708" r="1.53097" fill="black"/>
<circle cx="83.907" cy="40.5708" r="1.53097" fill="black"/>
<circle cx="90.7966" cy="40.5708" r="1.53097" fill="black"/>
<circle cx="97.6858" cy="40.5708" r="1.53097" fill="black"/>
<circle cx="104.575" cy="40.5708" r="1.53097" fill="black"/>
<circle cx="111.465" cy="40.5708" r="1.53097" fill="black"/>
<circle cx="118.354" cy="40.5708" r="1.53097" fill="black"/>
<circle cx="125.243" cy="40.5708" r="1.53097" fill="black"/>
<circle cx="132.133" cy="40.5708" r="1.53097" fill="black"/>
<circle cx="139.022" cy="40.5708" r="1.53097" fill="black"/>
<circle cx="145.911" cy="40.5708" r="1.53097" fill="black"/>
<circle cx="152.801" cy="40.5708" r="1.53097" fill="black"/>
<circle cx="159.69" cy="40.5708" r="1.53097" fill="black"/>
<circle cx="166.58" cy="40.5708" r="1.53097" fill="black"/>
<circle cx="173.469" cy="40.5708" r="1.53097" fill="black"/>
<circle cx="180.359" cy="40.5708" r="1.53097" fill="black"/>
<circle cx="42.571" cy="47.4602" r="1.53097" fill="black"/>
<circle cx="49.4602" cy="47.4602" r="1.53097" fill="black"/>
<circle cx="56.3493" cy="47.4602" r="1.53097" fill="black"/>
<circle cx="63.239" cy="47.4602" r="1.53097" fill="black"/>
<circle cx="70.1281" cy="47.4602" r="1.53097" fill="black"/>
<circle cx="77.0178" cy="47.4602" r="1.53097" fill="black"/>
<circle cx="83.907" cy="47.4602" r="1.53097" fill="black"/>
<circle cx="90.7966" cy="47.4602" r="1.53097" fill="black"/>
<circle cx="97.6858" cy="47.4602" r="1.53097" fill="black"/>
<circle cx="104.575" cy="47.4602" r="1.53097" fill="black"/>
<circle cx="111.465" cy="47.4602" r="1.53097" fill="black"/>
<circle cx="118.354" cy="47.4602" r="1.53097" fill="black"/>
<circle cx="125.243" cy="47.4602" r="1.53097" fill="black"/>
<circle cx="132.133" cy="47.4602" r="1.53097" fill="black"/>
<circle cx="139.022" cy="47.4602" r="1.53097" fill="black"/>
<circle cx="145.911" cy="47.4602" r="1.53097" fill="black"/>
<circle cx="152.801" cy="47.4602" r="1.53097" fill="black"/>
<circle cx="159.69" cy="47.4602" r="1.53097" fill="black"/>
<circle cx="166.58" cy="47.4602" r="1.53097" fill="black"/>
<circle cx="173.469" cy="47.4602" r="1.53097" fill="black"/>
<circle cx="180.359" cy="47.4602" r="1.53097" fill="black"/>
<circle cx="42.571" cy="54.3496" r="1.53097" fill="black"/>
<circle cx="49.4602" cy="54.3496" r="1.53097" fill="black"/>
<circle cx="56.3493" cy="54.3496" r="1.53097" fill="black"/>
<circle cx="63.239" cy="54.3496" r="1.53097" fill="black"/>
<circle cx="70.1281" cy="54.3496" r="1.53097" fill="black"/>
<circle cx="77.0178" cy="54.3496" r="1.53097" fill="black"/>
<circle cx="83.907" cy="54.3496" r="1.53097" fill="black"/>
<circle cx="90.7966" cy="54.3496" r="1.53097" fill="black"/>
<circle cx="97.6858" cy="54.3496" r="1.53097" fill="black"/>
<circle cx="104.575" cy="54.3496" r="1.53097" fill="black"/>
<circle cx="111.465" cy="54.3496" r="1.53097" fill="black"/>
<circle cx="118.354" cy="54.3496" r="1.53097" fill="black"/>
<circle cx="125.243" cy="54.3496" r="1.53097" fill="black"/>
<circle cx="132.133" cy="54.3496" r="1.53097" fill="black"/>
<circle cx="139.022" cy="54.3496" r="1.53097" fill="black"/>
<circle cx="145.911" cy="54.3496" r="1.53097" fill="black"/>
<circle cx="152.801" cy="54.3496" r="1.53097" fill="black"/>
<circle cx="159.69" cy="54.3496" r="1.53097" fill="black"/>
<circle cx="166.58" cy="54.3496" r="1.53097" fill="black"/>
<circle cx="173.469" cy="54.3496" r="1.53097" fill="black"/>
<circle cx="180.359" cy="54.3496" r="1.53097" fill="black"/>
<circle cx="42.571" cy="61.239" r="1.53097" fill="black"/>
<circle cx="49.4602" cy="61.239" r="1.53097" fill="black"/>
<circle cx="56.3493" cy="61.239" r="1.53097" fill="black"/>
<circle cx="63.239" cy="61.239" r="1.53097" fill="black"/>
<circle cx="70.1281" cy="61.239" r="1.53097" fill="black"/>
<circle cx="77.0178" cy="61.239" r="1.53097" fill="black"/>
<circle cx="83.907" cy="61.239" r="1.53097" fill="black"/>
<circle cx="90.7966" cy="61.239" r="1.53097" fill="black"/>
<circle cx="97.6858" cy="61.239" r="1.53097" fill="black"/>
<circle cx="104.575" cy="61.239" r="1.53097" fill="black"/>
<circle cx="111.465" cy="61.239" r="1.53097" fill="black"/>
<circle cx="118.354" cy="61.239" r="1.53097" fill="black"/>
<circle cx="125.243" cy="61.239" r="1.53097" fill="black"/>
<circle cx="132.133" cy="61.239" r="1.53097" fill="black"/>
<circle cx="139.022" cy="61.239" r="1.53097" fill="black"/>
<circle cx="145.911" cy="61.239" r="1.53097" fill="black"/>
<circle cx="152.801" cy="61.239" r="1.53097" fill="black"/>
<circle cx="159.69" cy="61.239" r="1.53097" fill="black"/>
<circle cx="166.58" cy="61.239" r="1.53097" fill="black"/>
<circle cx="173.469" cy="61.239" r="1.53097" fill="black"/>
<circle cx="180.359" cy="61.239" r="1.53097" fill="black"/>
<circle cx="42.571" cy="68.1284" r="1.53097" fill="black"/>
<circle cx="49.4602" cy="68.1284" r="1.53097" fill="black"/>
<circle cx="56.3493" cy="68.1284" r="1.53097" fill="black"/>
<circle cx="63.239" cy="68.1284" r="1.53097" fill="black"/>
<circle cx="70.1281" cy="68.1284" r="1.53097" fill="black"/>
<circle cx="77.0178" cy="68.1284" r="1.53097" fill="black"/>
<circle cx="83.907" cy="68.1284" r="1.53097" fill="black"/>
<circle cx="90.7966" cy="68.1284" r="1.53097" fill="black"/>
<circle cx="97.6858" cy="68.1284" r="1.53097" fill="black"/>
<circle cx="104.575" cy="68.1284" r="1.53097" fill="black"/>
<circle cx="111.465" cy="68.1284" r="1.53097" fill="black"/>
<circle cx="118.354" cy="68.1284" r="1.53097" fill="black"/>
<circle cx="125.243" cy="68.1284" r="1.53097" fill="black"/>
<circle cx="132.133" cy="68.1284" r="1.53097" fill="black"/>
<circle cx="139.022" cy="68.1284" r="1.53097" fill="black"/>
<circle cx="145.911" cy="68.1284" r="1.53097" fill="black"/>
<circle cx="152.801" cy="68.1284" r="1.53097" fill="black"/>
<circle cx="159.69" cy="68.1284" r="1.53097" fill="black"/>
<circle cx="166.58" cy="68.1284" r="1.53097" fill="black"/>
<circle cx="173.469" cy="68.1284" r="1.53097" fill="black"/>
<circle cx="180.359" cy="68.1284" r="1.53097" fill="black"/>
<circle cx="42.571" cy="75.0178" r="1.53097" fill="black"/>
<circle cx="49.4602" cy="75.0178" r="1.53097" fill="black"/>
<circle cx="56.3493" cy="75.0178" r="1.53097" fill="black"/>
<circle cx="63.239" cy="75.0178" r="1.53097" fill="black"/>
<circle cx="70.1281" cy="75.0178" r="1.53097" fill="black"/>
<circle cx="77.0178" cy="75.0178" r="1.53097" fill="black"/>
<circle cx="83.907" cy="75.0178" r="1.53097" fill="black"/>
<circle cx="90.7966" cy="75.0178" r="1.53097" fill="black"/>
<circle cx="97.6858" cy="75.0178" r="1.53097" fill="black"/>
<circle cx="104.575" cy="75.0178" r="1.53097" fill="black"/>
<circle cx="111.465" cy="75.0178" r="1.53097" fill="black"/>
<circle cx="118.354" cy="75.0178" r="1.53097" fill="black"/>
<circle cx="125.243" cy="75.0178" r="1.53097" fill="black"/>
<circle cx="132.133" cy="75.0178" r="1.53097" fill="black"/>
<circle cx="139.022" cy="75.0178" r="1.53097" fill="black"/>
<circle cx="145.911" cy="75.0178" r="1.53097" fill="black"/>
<circle cx="152.801" cy="75.0178" r="1.53097" fill="black"/>
<circle cx="159.69" cy="75.0178" r="1.53097" fill="black"/>
<circle cx="166.58" cy="75.0178" r="1.53097" fill="black"/>
<circle cx="173.469" cy="75.0178" r="1.53097" fill="black"/>
<circle cx="180.359" cy="75.0178" r="1.53097" fill="black"/>
<circle cx="42.571" cy="81.9072" r="1.53097" fill="black"/>
<circle cx="49.4602" cy="81.9072" r="1.53097" fill="black"/>
<circle cx="56.3493" cy="81.9072" r="1.53097" fill="black"/>
<circle cx="63.239" cy="81.9072" r="1.53097" fill="black"/>
<circle cx="70.1281" cy="81.9072" r="1.53097" fill="black"/>
<circle cx="77.0178" cy="81.9072" r="1.53097" fill="black"/>
<circle cx="83.907" cy="81.9072" r="1.53097" fill="black"/>
<circle cx="90.7966" cy="81.9072" r="1.53097" fill="black"/>
<circle cx="97.6858" cy="81.9072" r="1.53097" fill="black"/>
<circle cx="104.575" cy="81.9072" r="1.53097" fill="black"/>
<circle cx="111.465" cy="81.9072" r="1.53097" fill="black"/>
<circle cx="118.354" cy="81.9072" r="1.53097" fill="black"/>
<circle cx="125.243" cy="81.9072" r="1.53097" fill="black"/>
<circle cx="132.133" cy="81.9072" r="1.53097" fill="black"/>
<circle cx="139.022" cy="81.9072" r="1.53097" fill="black"/>
<circle cx="145.911" cy="81.9072" r="1.53097" fill="black"/>
<circle cx="152.801" cy="81.9072" r="1.53097" fill="black"/>
<circle cx="159.69" cy="81.9072" r="1.53097" fill="black"/>
<circle cx="166.58" cy="81.9072" r="1.53097" fill="black"/>
<circle cx="173.469" cy="81.9072" r="1.53097" fill="black"/>
<circle cx="180.359" cy="81.9072" r="1.53097" fill="black"/>
<circle cx="42.571" cy="88.7964" r="1.53097" fill="black"/>
<circle cx="49.4602" cy="88.7964" r="1.53097" fill="black"/>
<circle cx="56.3493" cy="88.7964" r="1.53097" fill="black"/>
<circle cx="63.239" cy="88.7964" r="1.53097" fill="black"/>
<circle cx="70.1281" cy="88.7964" r="1.53097" fill="black"/>
<circle cx="77.0178" cy="88.7964" r="1.53097" fill="black"/>
<circle cx="83.907" cy="88.7964" r="1.53097" fill="black"/>
<circle cx="90.7966" cy="88.7964" r="1.53097" fill="black"/>
<circle cx="97.6858" cy="88.7964" r="1.53097" fill="black"/>
<circle cx="104.575" cy="88.7964" r="1.53097" fill="black"/>
<circle cx="111.465" cy="88.7964" r="1.53097" fill="black"/>
<circle cx="118.354" cy="88.7964" r="1.53097" fill="black"/>
<circle cx="125.243" cy="88.7964" r="1.53097" fill="black"/>
<circle cx="132.133" cy="88.7964" r="1.53097" fill="black"/>
<circle cx="139.022" cy="88.7964" r="1.53097" fill="black"/>
<circle cx="145.911" cy="88.7964" r="1.53097" fill="black"/>
<circle cx="152.801" cy="88.7964" r="1.53097" fill="black"/>
<circle cx="159.69" cy="88.7964" r="1.53097" fill="black"/>
<circle cx="166.58" cy="88.7964" r="1.53097" fill="black"/>
<circle cx="173.469" cy="88.7964" r="1.53097" fill="black"/>
<circle cx="180.359" cy="88.7964" r="1.53097" fill="black"/>
<circle cx="42.571" cy="95.6858" r="1.53097" fill="black"/>
<circle cx="49.4602" cy="95.6858" r="1.53097" fill="black"/>
<circle cx="56.3493" cy="95.6858" r="1.53097" fill="black"/>
<circle cx="63.239" cy="95.6858" r="1.53097" fill="black"/>
<circle cx="70.1281" cy="95.6858" r="1.53097" fill="black"/>
<circle cx="77.0178" cy="95.6858" r="1.53097" fill="black"/>
<circle cx="83.907" cy="95.6858" r="1.53097" fill="black"/>
<circle cx="90.7966" cy="95.6858" r="1.53097" fill="black"/>
<circle cx="97.6858" cy="95.6858" r="1.53097" fill="black"/>
<circle cx="104.575" cy="95.6858" r="1.53097" fill="black"/>
<circle cx="111.465" cy="95.6858" r="1.53097" fill="black"/>
<circle cx="118.354" cy="95.6858" r="1.53097" fill="black"/>
<circle cx="125.243" cy="95.6858" r="1.53097" fill="black"/>
<circle cx="132.133" cy="95.6858" r="1.53097" fill="black"/>
<circle cx="139.022" cy="95.6858" r="1.53097" fill="black"/>
<circle cx="145.911" cy="95.6858" r="1.53097" fill="black"/>
<circle cx="152.801" cy="95.6858" r="1.53097" fill="black"/>
<circle cx="159.69" cy="95.6858" r="1.53097" fill="black"/>
<circle cx="166.58" cy="95.6858" r="1.53097" fill="black"/>
<circle cx="173.469" cy="95.6858" r="1.53097" fill="black"/>
<circle cx="180.359" cy="95.6858" r="1.53097" fill="black"/>
<circle cx="42.571" cy="102.575" r="1.53097" fill="black"/>
<circle cx="49.4602" cy="102.575" r="1.53097" fill="black"/>
<circle cx="56.3493" cy="102.575" r="1.53097" fill="black"/>
<circle cx="63.239" cy="102.575" r="1.53097" fill="black"/>
<circle cx="70.1281" cy="102.575" r="1.53097" fill="black"/>
<circle cx="77.0178" cy="102.575" r="1.53097" fill="black"/>
<circle cx="83.907" cy="102.575" r="1.53097" fill="black"/>
<circle cx="90.7966" cy="102.575" r="1.53097" fill="black"/>
<circle cx="97.6858" cy="102.575" r="1.53097" fill="black"/>
<circle cx="104.575" cy="102.575" r="1.53097" fill="black"/>
<circle cx="111.465" cy="102.575" r="1.53097" fill="black"/>
<circle cx="118.354" cy="102.575" r="1.53097" fill="black"/>
<circle cx="125.243" cy="102.575" r="1.53097" fill="black"/>
<circle cx="132.133" cy="102.575" r="1.53097" fill="black"/>
<circle cx="139.022" cy="102.575" r="1.53097" fill="black"/>
<circle cx="145.911" cy="102.575" r="1.53097" fill="black"/>
<circle cx="152.801" cy="102.575" r="1.53097" fill="black"/>
<circle cx="159.69" cy="102.575" r="1.53097" fill="black"/>
<circle cx="166.58" cy="102.575" r="1.53097" fill="black"/>
<circle cx="173.469" cy="102.575" r="1.53097" fill="black"/>
<circle cx="180.359" cy="102.575" r="1.53097" fill="black"/>
<circle cx="42.571" cy="109.465" r="1.53097" fill="black"/>
<circle cx="49.4602" cy="109.465" r="1.53097" fill="black"/>
<circle cx="56.3493" cy="109.465" r="1.53097" fill="black"/>
<circle cx="63.239" cy="109.465" r="1.53097" fill="black"/>
<circle cx="70.1281" cy="109.465" r="1.53097" fill="black"/>
<circle cx="77.0178" cy="109.465" r="1.53097" fill="black"/>
<circle cx="83.907" cy="109.465" r="1.53097" fill="black"/>
<circle cx="90.7966" cy="109.465" r="1.53097" fill="black"/>
<circle cx="97.6858" cy="109.465" r="1.53097" fill="black"/>
<circle cx="104.575" cy="109.465" r="1.53097" fill="black"/>
<circle cx="111.465" cy="109.465" r="1.53097" fill="black"/>
<circle cx="118.354" cy="109.465" r="1.53097" fill="black"/>
<circle cx="125.243" cy="109.465" r="1.53097" fill="black"/>
<circle cx="132.133" cy="109.465" r="1.53097" fill="black"/>
<circle cx="139.022" cy="109.465" r="1.53097" fill="black"/>
<circle cx="145.911" cy="109.465" r="1.53097" fill="black"/>
<circle cx="152.801" cy="109.465" r="1.53097" fill="black"/>
<circle cx="159.69" cy="109.465" r="1.53097" fill="black"/>
<circle cx="166.58" cy="109.465" r="1.53097" fill="black"/>
<circle cx="173.469" cy="109.465" r="1.53097" fill="black"/>
<circle cx="180.359" cy="109.465" r="1.53097" fill="black"/>
<circle cx="42.571" cy="116.354" r="1.53097" fill="black"/>
<circle cx="49.4602" cy="116.354" r="1.53097" fill="black"/>
<circle cx="56.3493" cy="116.354" r="1.53097" fill="black"/>
<circle cx="63.239" cy="116.354" r="1.53097" fill="black"/>
<circle cx="70.1281" cy="116.354" r="1.53097" fill="black"/>
<circle cx="77.0178" cy="116.354" r="1.53097" fill="black"/>
<circle cx="83.907" cy="116.354" r="1.53097" fill="black"/>
<circle cx="90.7966" cy="116.354" r="1.53097" fill="black"/>
<circle cx="97.6858" cy="116.354" r="1.53097" fill="black"/>
<circle cx="104.575" cy="116.354" r="1.53097" fill="black"/>
<circle cx="111.465" cy="116.354" r="1.53097" fill="black"/>
<circle cx="118.354" cy="116.354" r="1.53097" fill="black"/>
<circle cx="125.243" cy="116.354" r="1.53097" fill="black"/>
<circle cx="132.133" cy="116.354" r="1.53097" fill="black"/>
<circle cx="139.022" cy="116.354" r="1.53097" fill="black"/>
<circle cx="145.911" cy="116.354" r="1.53097" fill="black"/>
<circle cx="152.801" cy="116.354" r="1.53097" fill="black"/>
<circle cx="159.69" cy="116.354" r="1.53097" fill="black"/>
<circle cx="166.58" cy="116.354" r="1.53097" fill="black"/>
<circle cx="173.469" cy="116.354" r="1.53097" fill="black"/>
<circle cx="180.359" cy="116.354" r="1.53097" fill="black"/>
<circle cx="42.571" cy="123.243" r="1.53097" fill="black"/>
<circle cx="49.4602" cy="123.243" r="1.53097" fill="black"/>
<circle cx="56.3493" cy="123.243" r="1.53097" fill="black"/>
<circle cx="63.239" cy="123.243" r="1.53097" fill="black"/>
<circle cx="70.1281" cy="123.243" r="1.53097" fill="black"/>
<circle cx="77.0178" cy="123.243" r="1.53097" fill="black"/>
<circle cx="83.907" cy="123.243" r="1.53097" fill="black"/>
<circle cx="90.7966" cy="123.243" r="1.53097" fill="black"/>
<circle cx="97.6858" cy="123.243" r="1.53097" fill="black"/>
<circle cx="104.575" cy="123.243" r="1.53097" fill="black"/>
<circle cx="111.465" cy="123.243" r="1.53097" fill="black"/>
<circle cx="118.354" cy="123.243" r="1.53097" fill="black"/>
<circle cx="125.243" cy="123.243" r="1.53097" fill="black"/>
<circle cx="132.133" cy="123.243" r="1.53097" fill="black"/>
<circle cx="139.022" cy="123.243" r="1.53097" fill="black"/>
<circle cx="145.911" cy="123.243" r="1.53097" fill="black"/>
<circle cx="152.801" cy="123.243" r="1.53097" fill="black"/>
<circle cx="159.69" cy="123.243" r="1.53097" fill="black"/>
<circle cx="166.58" cy="123.243" r="1.53097" fill="black"/>
<circle cx="173.469" cy="123.243" r="1.53097" fill="black"/>
<circle cx="180.359" cy="123.243" r="1.53097" fill="black"/>
<circle cx="42.571" cy="130.133" r="1.53097" fill="black"/>
<circle cx="49.4602" cy="130.133" r="1.53097" fill="black"/>
<circle cx="56.3493" cy="130.133" r="1.53097" fill="black"/>
<circle cx="63.239" cy="130.133" r="1.53097" fill="black"/>
<circle cx="70.1281" cy="130.133" r="1.53097" fill="black"/>
<circle cx="77.0178" cy="130.133" r="1.53097" fill="black"/>
<circle cx="83.907" cy="130.133" r="1.53097" fill="black"/>
<circle cx="90.7966" cy="130.133" r="1.53097" fill="black"/>
<circle cx="97.6858" cy="130.133" r="1.53097" fill="black"/>
<circle cx="104.575" cy="130.133" r="1.53097" fill="black"/>
<circle cx="111.465" cy="130.133" r="1.53097" fill="black"/>
<circle cx="118.354" cy="130.133" r="1.53097" fill="black"/>
<circle cx="125.243" cy="130.133" r="1.53097" fill="black"/>
<circle cx="132.133" cy="130.133" r="1.53097" fill="black"/>
<circle cx="139.022" cy="130.133" r="1.53097" fill="black"/>
<circle cx="145.911" cy="130.133" r="1.53097" fill="black"/>
<circle cx="152.801" cy="130.133" r="1.53097" fill="black"/>
<circle cx="159.69" cy="130.133" r="1.53097" fill="black"/>
<circle cx="166.58" cy="130.133" r="1.53097" fill="black"/>
<circle cx="173.469" cy="130.133" r="1.53097" fill="black"/>
<circle cx="180.359" cy="130.133" r="1.53097" fill="black"/>
<circle cx="42.571" cy="137.022" r="1.53097" fill="black"/>
<circle cx="49.4602" cy="137.022" r="1.53097" fill="black"/>
<circle cx="56.3493" cy="137.022" r="1.53097" fill="black"/>
<circle cx="63.239" cy="137.022" r="1.53097" fill="black"/>
<circle cx="70.1281" cy="137.022" r="1.53097" fill="black"/>
<circle cx="77.0178" cy="137.022" r="1.53097" fill="black"/>
<circle cx="83.907" cy="137.022" r="1.53097" fill="black"/>
<circle cx="90.7966" cy="137.022" r="1.53097" fill="black"/>
<circle cx="97.6858" cy="137.022" r="1.53097" fill="black"/>
<circle cx="104.575" cy="137.022" r="1.53097" fill="black"/>
<circle cx="111.465" cy="137.022" r="1.53097" fill="black"/>
<circle cx="118.354" cy="137.022" r="1.53097" fill="black"/>
<circle cx="125.243" cy="137.022" r="1.53097" fill="black"/>
<circle cx="132.133" cy="137.022" r="1.53097" fill="black"/>
<circle cx="139.022" cy="137.022" r="1.53097" fill="black"/>
<circle cx="145.911" cy="137.022" r="1.53097" fill="black"/>
<circle cx="152.801" cy="137.022" r="1.53097" fill="black"/>
<circle cx="159.69" cy="137.022" r="1.53097" fill="black"/>
<circle cx="166.58" cy="137.022" r="1.53097" fill="black"/>
<circle cx="173.469" cy="137.022" r="1.53097" fill="black"/>
<circle cx="180.359" cy="137.022" r="1.53097" fill="black"/>
<circle cx="42.571" cy="143.912" r="1.53097" fill="black"/>
<circle cx="49.4602" cy="143.912" r="1.53097" fill="black"/>
<circle cx="56.3493" cy="143.912" r="1.53097" fill="black"/>
<circle cx="63.239" cy="143.912" r="1.53097" fill="black"/>
<circle cx="70.1281" cy="143.912" r="1.53097" fill="black"/>
<circle cx="77.0178" cy="143.912" r="1.53097" fill="black"/>
<circle cx="83.907" cy="143.912" r="1.53097" fill="black"/>
<circle cx="90.7966" cy="143.912" r="1.53097" fill="black"/>
<circle cx="97.6858" cy="143.912" r="1.53097" fill="black"/>
<circle cx="104.575" cy="143.912" r="1.53097" fill="black"/>
<circle cx="111.465" cy="143.912" r="1.53097" fill="black"/>
<circle cx="118.354" cy="143.912" r="1.53097" fill="black"/>
<circle cx="125.243" cy="143.912" r="1.53097" fill="black"/>
<circle cx="132.133" cy="143.912" r="1.53097" fill="black"/>
<circle cx="139.022" cy="143.912" r="1.53097" fill="black"/>
<circle cx="145.911" cy="143.912" r="1.53097" fill="black"/>
<circle cx="152.801" cy="143.912" r="1.53097" fill="black"/>
<circle cx="159.69" cy="143.912" r="1.53097" fill="black"/>
<circle cx="166.58" cy="143.912" r="1.53097" fill="black"/>
<circle cx="173.469" cy="143.912" r="1.53097" fill="black"/>
<circle cx="180.359" cy="143.912" r="1.53097" fill="black"/>
</g>
<rect x="2" y="71.1902" width="144.677" height="101.81" rx="3" fill="white" stroke="black" stroke-width="4"/>
<path d="M2 54.2876C2 52.6307 3.34315 51.2876 5 51.2876H59.7122C70.1153 51.2876 78.5487 59.721 78.5487 70.124V70.124C78.5487 70.7129 78.0713 71.1903 77.4825 71.1903H5C3.34315 71.1903 2 69.8471 2 68.1903V54.2876Z" fill="white" stroke="black" stroke-width="4"/>
</svg>
